<?xml version="1.0" encoding="UTF-8"?> <!-- Generator: Adobe Illustrator 19.2.1, SVG Export Plug-In . SVG Version: 6.00 Build 0) --> <svg xmlns:serif="http://www.serif.com/" xmlns="http://www.w3.org/2000/svg" xmlns:xlink="http://www.w3.org/1999/xlink" id="Слой_1" x="0px" y="0px" viewBox="0 0 24 24" style="enable-background:new 0 0 24 24;" xml:space="preserve"> <style type="text/css"> .st0{fill:#2CA5E0;} .st1{fill:#FFFFFF;} </style> <path id="telegram-4" class="st0" d="M12,0C5.4,0,0,5.4,0,12c0,6.6,5.4,12,12,12c6.6,0,12-5.4,12-12C24,5.4,18.6,0,12,0z"></path> <path class="st1" d="M14.7,17.7c0.2,0.1,0.4,0.2,0.6,0.1c0.2-0.1,0.4-0.3,0.4-0.5c0.5-2.4,1.7-8.4,2.2-10.6c0-0.2,0-0.3-0.2-0.4 c-0.1-0.1-0.3-0.1-0.5-0.1c-2.4,0.9-10,3.7-13.1,4.9C4.1,11.1,4,11.3,4,11.5c0,0.2,0.1,0.4,0.3,0.4c1.4,0.4,3.2,1,3.2,1 s0.8,2.6,1.3,3.9C8.9,17,9,17.1,9.2,17.2c0.2,0,0.3,0,0.5-0.1c0.7-0.7,1.8-1.7,1.8-1.7S13.5,16.9,14.7,17.7z"></path> <path class="st0" d="M8.4,12.6l1,3.2l0.2-2c0,0,3.8-3.4,5.9-5.4c0.1-0.1,0.1-0.2,0-0.2c-0.1-0.1-0.1-0.1-0.2,0 C12.8,9.8,8.4,12.6,8.4,12.6z"></path> </svg> 